<?xml version="1.0" encoding="UTF-8"?>
<svg width="41px" height="17px" viewBox="0 0 41 17" version="1.1" xmlns="http://www.w3.org/2000/svg" xmlns:xlink="http://www.w3.org/1999/xlink">
    <!-- Generator: Sketch 46.2 (44496) - http://www.bohemiancoding.com/sketch -->
    <title>Page 1</title>
    <desc>Created with Sketch.</desc>
    <defs></defs>
    <g id="Take-Two" stroke="none" stroke-width="1" fill="none" fill-rule="evenodd">
        <g id="Desktop-HD" transform="translate(-705.000000, -63.000000)" fill="#2A2B38">
            <g id="Page-1" transform="translate(705.000000, 63.000000)">
                <path d="M28.0133185,16.9961916 C26.9185772,17.006847 25.840709,16.7422663 24.888645,16.2290836 C24.4529934,15.973381 24.0342632,15.6945855 23.6342569,15.3927427 C23.4483532,15.2560134 23.2549407,15.1192841 23.0634031,14.9896553 C22.1695542,14.2846888 20.8719974,14.2846888 19.9800233,14.9896553 C19.7884856,15.1210569 19.608216,15.2560134 19.4204183,15.3927427 C19.119969,15.6147063 18.8195196,15.8366698 18.4946497,16.0408865 L18.4965293,16.0408865 C16.3727128,17.2909883 13.6835707,17.2909883 11.561677,16.0408865 C11.2368167,15.8366789 10.9607783,15.6200431 10.6415328,15.3980613 C10.4424863,15.2506766 10.2453146,15.1032919 10.040634,14.9612348 C9.17495524,14.3273195 7.96378372,14.3273195 7.09623014,14.9612348 C6.8671387,15.1086196 6.65119011,15.2737603 6.44086593,15.4335915 C6.23055137,15.5934045 5.83996718,15.870418 5.52826898,16.0692797 C3.87204781,17.0352675 1.84966298,17.2625587 0,16.689012 L0.475084973,15.2968531 C1.8815731,15.7283519 3.41573972,15.5614337 4.6813767,14.836952 C4.97055802,14.6611558 5.22780999,14.4676037 5.4869656,14.2687238 C5.74610199,14.069844 5.96205058,13.9171316 6.21366852,13.7519999 C7.61640656,12.7629193 9.53928256,12.7629193 10.9419725,13.7519999 C11.171064,13.9047124 11.3870126,14.0645254 11.6029612,14.2296752 C11.8189097,14.3948159 12.1325212,14.6221072 12.4254233,14.7979033 L12.4273029,14.7961305 C14.0328034,15.7248425 16.0533663,15.7248425 17.6608907,14.7961305 C17.950072,14.6150066 18.2129484,14.4161268 18.4833528,14.2279023 C18.7537572,14.0396779 18.879571,13.9331329 19.0842515,13.7910758 C20.5226541,12.7363081 22.5319153,12.7363081 23.9702746,13.7910758 C24.1805892,13.9331329 24.3796357,14.0751899 24.5711734,14.2225746 C24.9260786,14.4978107 25.2960015,14.7517541 25.6828361,14.984364 C26.9803928,15.6556005 28.5314807,15.7248334 29.8891273,15.1725884 C30.4881513,14.8813738 31.0552555,14.5351274 31.5828927,14.1373677 L32.0448348,13.8141868 L32.0467144,13.8141868 C33.4907462,12.7629648 35.503757,12.7629648 36.9495675,13.8141868 L37.5504662,14.2297025 C37.8809605,14.4747497 38.200206,14.7073778 38.5419492,14.9168949 C39.2611528,15.3377382 40.1005363,15.5366272 40.9455442,15.485123 L41,16.9447419 C39.8338718,17.0086653 38.675291,16.7192281 37.6950569,16.1208112 C37.2932046,15.8757639 36.938309,15.6147245 36.594643,15.3643404 L36.0538341,14.9719084 L36.0538341,14.9736813 C35.1468616,14.298899 33.8718025,14.298899 32.96483,14.9736813 L32.5141559,15.2862068 C31.9076328,15.7390119 31.2522686,16.1332303 30.561235,16.4617117 C29.7631453,16.8133039 28.8937169,16.9962098 28.0130397,16.9962098 L28.0133185,16.9961916 Z" id="Fill-1"></path>
                <path d="M28.01322,10.9995782 C26.9203536,11.0120226 25.8406109,10.7488799 24.8885471,10.23858 C24.4528956,9.9825471 24.0341654,9.70339153 23.6341592,9.40115887 C23.4482556,9.26425293 23.2548431,9.127347 23.0332605,8.99755081 C22.1394118,8.29167368 20.8418553,8.29167368 19.9498814,8.99755081 C19.7583437,9.12912216 19.5780742,9.26425293 19.3902765,9.40115887 C19.0898272,9.62340912 18.7893779,9.84565937 18.4588836,10.0501398 C16.3369423,11.3018564 13.6478488,11.3018564 11.5259555,10.0501398 C11.2010953,9.84566847 10.9250569,9.62875281 10.6058114,9.40648435 C10.406765,9.25890924 10.2039593,9.11133413 10.0049128,8.96909361 C9.13735938,8.33080917 7.92243848,8.33080917 7.05488506,8.96909361 C6.82579366,9.11666872 6.60984511,9.28202276 6.39952097,9.44206042 C6.18920645,9.60207987 5.79862233,9.87945117 5.48692419,10.0785697 C3.84007735,11.031604 1.83644094,11.255593 0,10.693777 L0.475084884,9.29981989 C1.88157083,9.73365577 3.41761196,9.5647423 4.6813739,8.83754957 C4.97055517,8.66152635 5.22780709,8.46772421 5.48696265,8.26858747 C5.74609899,8.06945074 5.96204754,7.91654104 6.21366543,7.7511961 C7.61640321,6.76261308 9.53927884,6.76261308 10.9419686,7.7511961 C11.17106,7.9041058 11.3926425,8.06945984 11.6085815,8.2294884 C11.82453,8.38950785 12.1381414,8.62242728 12.425419,8.79845049 L12.4272986,8.79845049 C14.0328037,9.72836214 16.0533614,9.72836214 17.6608854,8.79845049 C17.9500667,8.61709269 18.212943,8.41795596 18.4833474,8.2294884 C18.7537518,8.04102084 18.8795655,7.93433817 19.084246,7.79209765 C20.5226532,6.73596745 22.531914,6.73596745 23.970273,7.79209765 C24.1805876,7.93433817 24.379634,8.0765787 24.5711717,8.22415381 C24.924202,8.49085593 25.29225,8.73799486 25.6772097,8.96380453 C26.9728914,9.63590808 28.5239791,9.70345526 29.8835002,9.15049693 C30.482524,8.86068129 31.0496281,8.51221249 31.5772652,8.11571419 L32.0467161,7.79211586 C33.4907476,6.73776082 35.503758,6.73776082 36.9495682,7.79211586 L37.5504669,8.20816825 C37.8809611,8.45353202 38.2002065,8.68113506 38.5419496,8.89092277 L38.5419496,8.88914305 C39.2574036,9.31764434 40.1005365,9.51677652 40.9455442,9.45810515 L41,10.9196095 L41,10.9213892 C39.8413713,10.98362 38.6902899,10.6991389 37.7119788,10.1070451 C37.3157607,9.86168134 36.9552311,9.60030471 36.6115651,9.34959725 L36.065132,8.95665837 L36.065132,8.95843353 C35.1600344,8.28277966 33.8831008,8.28277966 32.9780032,8.95843353 L32.5085523,9.31047997 C31.9001545,9.76386993 31.2466652,10.1585976 30.5556318,10.4875032 C29.7575422,10.8324354 28.8900369,11.0066698 28.0130614,10.9995691 L28.01322,10.9995782 Z" id="Fill-2"></path>
                <path d="M28.013053,3.99957913 C26.9201875,4.01199716 25.8404457,3.74941098 24.8883826,3.23841898 C24.4527315,2.98647487 24.0340016,2.70967656 23.6339958,2.4098545 C23.4480923,2.2732381 23.25468,2.13662171 23.0330976,2.00710003 C22.1392496,1.30271575 20.8416942,1.30271575 19.949721,2.00710003 C19.7581836,2.13839312 19.5779141,2.2732381 19.3901166,2.4098545 C19.0896676,2.63163471 18.7892185,2.85341492 18.4587245,3.05746289 C16.3367849,4.30830366 13.6476937,4.30830366 11.5258022,3.05746289 C11.2009422,2.85342401 10.924904,2.6369671 10.6056589,2.41516872 C10.4066126,2.26790571 10.203807,2.12064271 10.0047607,1.97870301 C9.13720804,1.34176847 7.92228815,1.34176847 7.05473545,1.97870301 C6.82564424,2.12596601 6.61532989,2.28564704 6.39937191,2.44353849 C6.18342354,2.60321952 5.79847377,2.8800042 5.47922861,3.08583266 C3.83425794,4.03149172 1.83254607,4.25150961 0,3.68729363 L0.475084489,2.29628457 C1.88156974,2.72742697 3.41573479,2.56064669 4.68137049,1.83676331 C4.97055151,1.66111236 5.22780322,1.46239678 5.49258297,1.26900451 C5.75736273,1.07561223 5.96766746,0.917702613 6.21928514,0.752707364 C7.62389655,-0.232013498 9.54489579,-0.232013498 10.9475843,0.752707364 C11.1766755,0.905293677 11.3982579,1.07029801 11.6141967,1.22998812 C11.8301451,1.38966915 12.1437562,1.62209597 12.4310336,1.79774692 L12.4329132,1.79774692 C14.0384169,2.7256919 16.0608477,2.7256919 17.6664956,1.79774692 C17.9613106,1.61677267 18.2261,1.41805709 18.4889569,1.22998812 C18.753727,1.04191915 18.8851747,0.935462109 19.089855,0.793522409 L19.089855,0.791751001 C20.5263862,-0.263917 22.5393949,-0.263917 23.975878,0.791751001 C24.1861923,0.933690701 24.3852386,1.08095371 24.5767761,1.22289341 C24.9298062,1.48903148 25.2997287,1.73564773 25.6828133,1.96097985 C26.9803687,2.63166196 28.531455,2.70083769 29.8891002,2.14904881 C30.4899983,1.8580747 31.0589768,1.51211428 31.5885363,1.11645453 L32.0448439,0.798863883 L32.0467187,0.797087934 C33.490749,-0.255037253 35.5056326,-0.255037253 36.9495716,0.797087934 L37.5504697,1.21226042 C37.8809637,1.45710527 38.2002089,1.68422696 38.5419517,1.89357098 C39.2592798,2.31761413 40.1005324,2.51633425 40.9455442,2.46132978 L41,3.91974316 C39.8413674,3.9800664 38.6921666,3.696187 37.7119815,3.10889276 C37.3157637,2.86404791 36.9552345,2.60322406 36.6115688,2.35304682 L36.0651361,1.96093897 C35.1600393,1.28848545 33.8831019,1.28848545 32.9780099,1.96093897 L32.5329703,2.267883 C31.9226981,2.72209004 31.2673346,3.11774979 30.5744269,3.44954804 C29.7744633,3.80794464 28.8994114,3.99600453 28.0131106,3.99954734 L28.013053,3.99957913 Z" id="Fill-3"></path>
            </g>
        </g>
    </g>
</svg>